<?xml version="1.0" encoding="utf-8"?>
<!-- Generator: Adobe Illustrator 24.1.0, SVG Export Plug-In . SVG Version: 6.00 Build 0)  -->
<svg version="1.1" id="Layer_1" xmlns="http://www.w3.org/2000/svg" xmlns:xlink="http://www.w3.org/1999/xlink" x="0px" y="0px"
	 viewBox="0 0 229.3 252.2" style="enable-background:new 0 0 229.3 252.2;" xml:space="preserve">
<style type="text/css">
	.st0{fill:#86878C;}
</style>
<path class="st0" d="M140.1,100.7H48v62h24.7v-37.1l67.5-0.1c3.9,0.1,7.7,1,11.2,2.6c6.2,3.1,9,7.9,9,15.8c0,6.4-1.5,11-4.6,14.1
	c-7,6.9-22.5,6.9-29.2,6.9h-4.8h-3.3v23.7h8.3c15.6,0,33.3-1.6,45.5-13.8c7.7-7.7,11.6-18.1,11.6-30.9
	C184.1,112.3,157.8,100.8,140.1,100.7z"/>
<path class="st0" d="M184.1,48.1c0-12.9-3.9-23.3-11.6-30.9C160.3,5,142.6,3.3,127,3.3h-8.3V27h3.2h4.8c6.6,0,22.2,0,29.2,6.9
	c3.1,3.1,4.6,7.7,4.6,14.2c0,7.8-2.8,12.7-9,15.8c-3.5,1.6-7.3,2.5-11.2,2.6l-67.5-0.1V29.2H48v62h92.1
	C157.8,91.2,184.1,79.6,184.1,48.1z"/>
<path class="st0" d="M12.4,241.7c0,1.9-2,2.8-5.9,2.8H2.8v5.1h2.3c9.5,0,13.3-2.5,13.3-8.1v-19.4h-6L12.4,241.7z"/>
<path class="st0" d="M47.2,241.7c0,1.9-2,2.8-5.9,2.8h-3.7v5.1h2.3c9.5,0,13.3-2.5,13.3-8.1v-19.4h-6L47.2,241.7z"/>
<path class="st0" d="M105.3,235.5c2.1-1.3,2.6-3.2,2.6-6.4c0-4.6-4.2-6.9-11.1-6.9H75.2v27.4h22.2c6.7,0,11-2.8,11-7.5
	C108.3,239.2,107.1,236.2,105.3,235.5z M81.3,227.3h16c3.4,0,5.1,0.7,5.1,2.3v1.5c0,1.9-1.5,2.4-4.5,2.4H81.3V227.3z M97,244.5H81.1
	v-5.7h16.3c4.2,0,4.9,0.9,4.9,2.8S101.3,244.5,97,244.5L97,244.5z"/>
<path class="st0" d="M120.8,229.4c0-1.4,2-2.1,5.9-2.1h5.8v-5.1h-6.1c-6.8,0-11.5,2.7-11.5,7.2v13.2c0,4.3,4.6,7,11.1,7h19.1v-5.2
	h-18.9c-3.6,0-5.4-0.7-5.4-2.1v-3.6h24.3v-5.2h-24.3V229.4z"/>
<path class="st0" d="M172.9,239.6c6.8,0,11.1-2.5,11.1-6.9v-3.3c0-4.6-4.4-7.2-11.9-7.2h-20.6v27.4h6v-9.7l16.4,9.7h10.9l-18.2-10
	L172.9,239.6z M157.4,227.3h15.4c3.5,0,5.2,0.7,5.2,2v3.4c0,1.2-1.4,1.8-4.2,1.8h-16.4V227.3z"/>
<path class="st0" d="M223.5,233.3h-11.4v5.1h5.5v4.1c0,1-2.9,1.9-4.8,1.9h-10.6c-3.8,0-5.7-0.6-5.7-2v-13.2c0-1.3,1.5-2,4.6-2h7.7
	v-5.1h-6.6c-6.9,0-11.7,2.7-11.7,7.1v13.2c0,4.5,4.5,7.1,11.6,7.1h10.7c6.5,0,10.7-2.7,10.7-7.2L223.5,233.3L223.5,233.3z"/>
</svg>
