<?xml version="1.0" encoding="utf-8"?>
<!-- Generator: Adobe Illustrator 24.1.0, SVG Export Plug-In . SVG Version: 6.00 Build 0)  -->
<svg version="1.1" id="Layer_1" xmlns="http://www.w3.org/2000/svg" xmlns:xlink="http://www.w3.org/1999/xlink" x="0px" y="0px"
	 viewBox="0 0 153.3 197" style="enable-background:new 0 0 153.3 197;" xml:space="preserve">
<style type="text/css">
	.st0{fill:#23676A;}
</style>
<path class="st0" d="M102.1,100.7H10v62h24.7v-37.1l67.5-0.1c3.9,0.1,7.7,1,11.2,2.6c6.2,3.1,9,7.9,9,15.8c0,6.4-1.5,11-4.6,14.1
	c-7,6.9-22.5,6.9-29.2,6.9h-4.8h-3.3v23.7h8.3c15.6,0,33.3-1.6,45.5-13.8c7.7-7.7,11.6-18.1,11.6-30.9
	C146.1,112.3,119.8,100.8,102.1,100.7z"/>
<path class="st0" d="M146.1,48.1c0-12.9-3.9-23.3-11.6-30.9C122.3,5,104.6,3.3,89,3.3h-8.3V27h3.2h4.8c6.6,0,22.2,0,29.2,6.9
	c3.1,3.1,4.6,7.7,4.6,14.2c0,7.8-2.8,12.7-9,15.8c-3.5,1.6-7.3,2.5-11.2,2.6l-67.5-0.1V29.2H10v62h92.1
	C119.8,91.2,146.1,79.6,146.1,48.1z"/>
</svg>
